<?xml version="1.0" encoding="utf-8"?>
<svg xmlns="http://www.w3.org/2000/svg" version="1.1" width="100%" height="100%" viewBox="-2600 -3700 3900 3400" preserveAspectRatio="xMidYMid meet">
  <path id="Mercer" d="M -977,-3599 l 16,30 72,181 15,35 41,111 31,70 41,101 26,30 527,-192 62,-5 220,50 16,50 10,26 5,35 0,40 -50,252 -21,66 -5,50 26,70 5,61 10,40 62,-5 46,0 36,30 56,80 62,10 41,10 15,21 36,50 164,100 36,51 41,20 52,5 66,10 16,5 15,-5 36,-16 31,-10 36,15 20,36 56,30 52,45 36,5 51,5 41,10 20,15 62,25 31,20 5,35 -30,187 -6,0 -10,5 -5,10 0,20 5,10 10,10 6,5 20,20 10,20 6,21 -6,5 -15,10 -25,15 -16,10 -20,10 -5,5 -31,15 -26,15 -15,10 -10,5 -82,51 -77,45 -5,0 -113,61 -72,35 -10,10 -15,11 -5,10 -11,15 -5,25 -10,35 -10,10 -15,10 -6,10 -25,36 -10,15 -6,10 -25,50 -31,46 -36,40 -61,5 -5,0 -16,5 -5,5 -20,5 -16,10 -41,10 -30,16 -11,20 -15,10 -46,-10 -21,-71 -61,31 -46,30 185,463 -10,5 -72,10 -179,-40 -16,-15 0,-45 -20,-36 -103,-25 -72,-55 -108,-50 -71,-50 -62,0 -26,-15 21,-36 0,-35 -5,-10 -5,-20 -31,-20 -26,0 -41,5 -41,-5 -20,-10 -26,-25 -31,-20 -41,0 -15,5 -16,15 -20,25 0,25 5,21 10,20 11,25 -5,25 15,20 26,25 -51,91 -16,30 -51,35 -41,-10 4,-8 15,-38 -2,-62 -17,-48 -26,-44 -34,-44 -30,-25 -6,-6 -22,-21 -17,-21 -9,-5 -36,-15 -20,-10 -21,-15 -25,-21 -21,-19 -15,-26 -7,-18 -11,-31 -3,-26 -10,-25 -21,-30 -18,-35 -15,-36 -14,-30 -20,-36 -20,-29 -10,-11 -19,-17 -34,-33 -26,-14 -50,-42 -46,-29 -5,-3 -41,-27 -36,-21 -46,-22 -42,-18 -36,-18 -61,-41 -61,-36 -19,-8 -17,-17 -3,-4 -13,-16 -16,-30 -25,-41 -21,-34 -11,-39 -19,-37 -16,-43 -15,-53 -22,-59 -20,-46 -40,-71 -14,-17 -22,-28 -32,-42 -44,-53 -41,-53 -23,-15 -21,-15 -25,-21 -19,-7 -31,-15 -21,-5 -25,-6 -31,-6 -35,-11 -31,-19 -5,-2 -23,-23 -34,-29 -62,-70 -20,-25 -21,-26 -28,-34 674,-67 -98,-352 563,-107 -51,-332 z"/>
  <path d="M -977,-3599 l 16,30 72,181 15,35 41,111 31,70 41,101 26,30 527,-192 62,-5 220,50 16,50 10,26 5,35 0,40 -50,252 -21,66 -5,50 26,70 5,61 10,40 62,-5 46,0 36,30 56,80 62,10 41,10 15,21 36,50 164,100 36,51 41,20 52,5 66,10 16,5 15,-5 36,-16 31,-10 36,15 20,36 56,30 52,45 36,5 51,5 41,10 20,15 62,25 31,20 5,35 -30,187 -6,0 -10,5 -5,10 0,20 5,10 10,10 6,5 20,20 10,20 6,21 -6,5 -15,10 -25,15 -16,10 -20,10 -5,5 -31,15 -26,15 -15,10 -10,5 -82,51 -77,45 -5,0 -113,61 -72,35 -10,10 -15,11 -5,10 -11,15 -5,25 -10,35 -10,10 -15,10 -6,10 -25,36 -10,15 -6,10 -25,50 -31,46 -36,40 -61,5 -5,0 -16,5 -5,5 -20,5 -16,10 -41,10 -30,16 -11,20 -15,10 -46,-10 -21,-71 -61,31 -46,30 185,463 -10,5 -72,10 -179,-40 -16,-15 0,-45 -20,-36 -103,-25 -72,-55 -108,-50 -71,-50 -62,0 -26,-15 21,-36 0,-35 -5,-10 -5,-20 -31,-20 -26,0 -41,5 -41,-5 -20,-10 -26,-25 -31,-20 -41,0 -15,5 -16,15 -20,25 0,25 5,21 10,20 11,25 -5,25 15,20 26,25 -51,91 -16,30 -51,35 -41,-10 4,-8 15,-38 -2,-62 -17,-48 -26,-44 -34,-44 -30,-25 -6,-6 -22,-21 -17,-21 -9,-5 -36,-15 -20,-10 -21,-15 -25,-21 -21,-19 -15,-26 -7,-18 -11,-31 -3,-26 -10,-25 -21,-30 -18,-35 -15,-36 -14,-30 -20,-36 -20,-29 -10,-11 -19,-17 -34,-33 -26,-14 -50,-42 -46,-29 -5,-3 -41,-27 -36,-21 -46,-22 -42,-18 -36,-18 -61,-41 -61,-36 -19,-8 -17,-17 -3,-4 -13,-16 -16,-30 -25,-41 -21,-34 -11,-39 -19,-37 -16,-43 -15,-53 -22,-59 -20,-46 -40,-71 -14,-17 -22,-28 -32,-42 -44,-53 -41,-53 -23,-15 -21,-15 -25,-21 -19,-7 -31,-15 -21,-5 -25,-6 -31,-6 -35,-11 -31,-19 -5,-2 -23,-23 -34,-29 -62,-70 -20,-25 -21,-26 -28,-34 674,-67 -98,-352 563,-107 -51,-332 z" stroke="none" style="fill: rgb(0, 134, 230);"/>
</svg>