<svg width="800" height="1166.3999999999999" xmlns="http://www.w3.org/2000/svg"><g transform="translate(0, 0)" id="single_state_map"><path d="M106.35915888665477,821.5282712945846L106.54267351617091,821.1945602968844L108.01115758154265,819.096870920408L109.47927461766449,817.6188732096798L110.83728287606937,815.3779114949575L111.90166772725934,812.6599448552115L112.7829049781867,807.4141119486994L112.6360932745738,807.0325642320568L112.89301375589639,803.0260462709757L113.58302876287416,801.8583407194074L114.72816005104323,801.2134136911118L117.591355300734,799.7346131937629L119.38979866997397,795.1069695464757L120.41307624414912,793.3320717380393L121.62867715005632,792.8644752026703L122.39943859401683,793.0076177047922L122.91327955665838,793.4690094657144L123.9413285112023,793.8187467905846L124.41846654794062,793.2461871581672L124.69447255072373,791.6601449633436L124.49480863381905,790.5989236283276L124.5652782515499,788.6176310556602L125.22593091780072,786.7087585159315L125.24648455630813,785.590107741742L125.69279213528716,783.4825121620179L127.50187935304348,779.5972334554044L128.59415842791714,776.1965219928097L128.59929683754308,776.181245684762L129.77746075902905,772.5796580071619L129.66735198131573,771.1950614808011L131.0987660915307,768.9986853170776L133.7046738306417,767.4706849172326L135.53982012578854,765.4173225330524L135.24766483560597,765.1040541110688L135.0626820890502,765.0352874724904L138.99026218992367,760.5938040094497L150.95578306354219,754.4798127037684L147.3941311339222,751.8174826634713L151.54302987798656,749.0818368144683L156.38818312643707,745.3549529831071L163.2519972995433,739.477084403934L169.65115243072432,733.5957733597388L174.28856711856133,730.6487470622524L178.4477426818812,729.2480400097065L181.0907203761526,728.8655840082665L186.06690307007375,728.6901308262841L192.04874593373825,729.3579952852288L200.2030349815941,729.0434266033408L210.38002227596007,726.5779259869487L213.46490319810255,725.6140499027133L218.60367985377525,723.4624386448377L222.49418999948466,721.1672311065358L228.03669884008923,715.8589485573666L230.23924142352553,714.0893301246724L232.55152575540706,713.4675496291602L244.4073048805767,713.1327398642043L246.35255995343323,712.4152788578231L247.4536477305228,711.3629743216206L248.26111210038653,710.5019727659455L250.757278091045,706.6750256345913L251.71155416452166,704.7613845503947L252.775939015708,699.2111936127039L251.96847464584062,696.7228718757942L250.97749564646438,694.5219852585233L250.17003127660064,691.794001517892L249.76629909166513,688.6349997220768L249.91311079527804,682.3160821072979L250.72057516514178,678.8210055940744L251.96847464584062,676.7620873039505L253.14296827473663,675.6128673105795L255.96909356926335,673.5537472726082L260.0434853737497,671.2071502736108L265.32907373303897,669.2435418865534L267.20092295408176,668.8603850521267L273.2939756832311,666.2739590956699L278.065356050618,660.5735209869672L280.92818427104794,654.8241742069276L282.4700741882298,652.7158271971894L285.2961994827492,650.7511087986368L294.0318628769164,647.636548701923L295.6467916166366,646.7738699688143L296.8216522747971,645.9111684770596L303.4281789373272,639.1046140699655L305.63072152075983,636.5158340881644L309.007390703835,633.6391713960002L320.1287442816829,626.6861909917643L324.6068682711011,624.1923478807967L327.13937015840565,623.0897207845755L328.79100182403636,622.8978723387536L332.05756222939453,623.4734142962316L333.12194708058087,623.3295297574678L340.90333440126415,620.6435686981513L343.69312379914845,619.204570130878L349.7124036472269,617.5736284428876L350.7767884984132,616.8540694529856L351.18052068334873,616.2784108461747L351.7677674977931,614.4074502915173L352.39171723814434,613.2080602194128L353.16247868210485,612.3444720883635L354.3740422661649,611.4808611166609L357.200167560688,610.1374208675952L359.18212555944774,608.6019928908572L360.24651041063044,607.1624635760727L361.09067770640104,603.4193902444422L362.7056064461358,599.2919143484851L363.62354662296275,597.5639787336986L364.94485195546804,596.2199655500244L366.1560485102709,595.835951615094L367.1470275096508,595.7879495554444L368.4316299162456,596.1239624899954L372.9093868764103,598.0919687678252L377.27740208811883,599.2439173724069L378.5987074206241,599.2919143484851L379.6997951977137,599.051928762141L384.3309703881496,595.0511090781547L386.7621721999567,593.4208803934835L388.22368270941297,592.7031891153274L389.53654636895953,592.3796228004194L392.9866214038375,592.6196574659516L394.08770918092705,592.5236438116608L394.9318764766904,592.1395863688122L400.4160276651128,587.2016450972824L400.91482042813004,586.4742138166603L401.5387701684813,585.0337079615474L401.9057994275099,583.2089758697111L401.94250235341315,581.0004332769822L401.64887894619096,579.9438912106561L397.42804246734886,573.2676746950638L396.17977595739285,571.7785478385631L393.6472740700883,570.1452337024366L390.8578517014648,569.0402983147214L389.9035756279882,568.1274973479885L389.42643759124985,567.4068469463164L388.9492995545115,566.1096360633437L387.59129129610665,561.5449650018709L385.2790069642215,557.316067478936L383.9940375283586,554.048387613313L383.64389161524014,553.620138172213L380.0301215308391,550.6837622187049L374.8550089785276,546.8861245411445L365.97253388075114,542.5110814716936L364.35760514102003,541.0686307075866L359.80644232905615,538.8086626584955L357.60389974561986,536.7408948559241L356.02567393179197,532.7492505521313L353.63998374810035,527.5069488193221L352.3920842674015,523.80282241038L350.9298396994309,520.3499081229256L349.38831681150623,517.4148592562196L348.09747490750306,515.2384216543469L343.54631209553554,510.23345795874593L341.16062191184756,507.9713465548739L339.5089902462132,506.67176455408116L337.7472498028692,505.6609426298837L335.2143808863075,505.4202661097697L333.37923459116064,504.7944988167674L330.03926833399237,502.1473698865793L326.58919329911805,498.7773720629011L324.2765419379757,496.99594629650164L321.8541488283772,494.63661048551876L320.36217489042247,492.4417928547882L319.88063250257983,490.14569503610437L319.54369964278885,485.34204933471483L318.54684817526504,481.7477602688559L316.7208776115913,476.2977661918321L312.9404762435879,467.06301284885376L312.385895033196,466.0552947852084L310.885112393029,464.8827168696298L306.063081987897,462.63575989782476L305.06035805222564,461.9113216778551L303.7999795767246,460.54337625586413L301.05570180695577,459.697419196129L300.2214443011835,459.9071029168499L298.49640678374635,460.9882781540273L293.40571096100757,462.5364699207639L290.6331719382979,463.1066601655948L289.33388836133236,462.90037102259885L286.28717848213637,461.49631684690576L284.4391861629192,460.0030267418588L283.9180046151014,459.1792294750667L282.6693710758773,458.1240250014962L279.13524634068744,457.02781004064855L278.1273839953901,456.0641322526335L277.15805972229646,453.75822770535706L276.63173976484904,448.667108523372L274.9793740406967,441.4738590966408L273.8258010795689,438.1737666378249L273.8258010795689,437.6031378002044L275.024518639555,433.45166733028236L274.7499807538006,431.7033174982189L274.8505467707764,429.65332470471003L276.11643068516423,427.7387873743628L276.88719212913566,425.52110219702627L276.9936306142481,423.12229919232414L276.833605857315,420.55150780898657L275.768486947607,414.2802758315065L275.50202370555417,411.3674781071859L275.5563440358892,407.1291161967165L275.83638736053035,403.916783653176L275.3548449726841,398.9023388587648L275.0410349562153,397.42837699391566L274.5426092224516,396.1538191348118L270.91342390916907,393.22055150582855L264.60162174164,385.44052533842114L262.9041114186293,383.7929775925768L259.0216759166178,382.4110986232936L256.6767259806693,381.18378596405455L249.53580471699752,379.966091142418L247.6426677989184,380.1874057543828L245.63795398610455,381.21229493622377L241.57200385458054,385.0129440331457L239.94789938337271,385.5878825573873L237.84188549506143,385.58063549675353L235.3835235180777,385.1530560440897L232.50454601025558,384.01378285080136L231.18837908737987,383.02232160515996L229.12750979792327,380.6783515380557L228.50576223312964,379.712398948448L228.20333012369156,378.58404859681104L228.113774984482,378.05344453912767L228.28187438512396,376.9656306667839L229.69860732497182,374.5985062389627L229.93717634334462,372.89675660336434L229.1498985827311,366.9430693338272L227.81684831393432,364.9552013003722L227.49386256598154,364.08885478745833L226.87138094267357,362.6809921545537L225.82571458370148,361.16476378013795L225.65541300750556,359.9269735710459L226.0606133094734,359.362216031328L227.09453473216126,358.8902877746277L229.73714539717184,358.58855953815146L230.25392259388536,357.8458318710891L230.5123111922403,356.32937651809516L229.60207862985408,349.87639168990245L229.15540402160696,348.5066047767996L228.70909644262792,347.7946021850221L226.14870033164334,345.55788320836837L226.15457279978727,344.43559558058405L227.54047528188312,341.57939106483354L229.67805368646805,338.28166987678196L230.74684288876233,337.37589873648903L232.6495225675717,336.3307465996477L234.5819316163579,333.12540228859507L234.8344477465689,331.6155283483531L234.5466968074943,330.63987991561225L233.45405070335983,329.85004766959173L232.0035510716807,329.55579149687946L229.77788564492948,329.8423041204878L227.45092014268084,328.9130647335842L225.982803106559,326.88074427045285L224.88171532947672,323.9765156777157L226.79026747643002,317.2957972917993L228.36849329025426,313.0736441202898L229.03208219057706,312.17491262424664L230.20657581946944,311.15993572364096L231.32234476691883,308.2542908067844L232.74348205788192,305.37163223044627L232.89616622963877,304.59668003932893L232.63190516313625,303.56596475099286L231.53962608826987,301.8144481284253L228.02752310861615,297.83879148826236L227.66930255179977,297.032652390797L227.47257486896342,295.59860510174985L227.592960465925,294.85539466995033L229.33157806594681,292.82092586364524L232.54638734578475,291.11824948702633L234.01340329412415,289.88116036812426L234.5870700259875,288.7530564846602L234.81536222510476,286.57426977609794L235.26864336000654,284.53782383581347L236.1021668072608,282.98399002730366L236.74887236166978,282.20074406258937L237.50642075230644,281.847889407778L239.66198359058762,281.8900576812448L244.90022517545367,283.6349033346378L248.6703497242088,284.20680439089483L250.39758941719992,284.1297437389876L250.800220514353,283.9557507712052L251.47482029244566,283.0707469168956L253.5294500844975,279.15627602867244L254.54942439534352,277.837773530955L256.84188914723563,276.5754506876874L258.86018304264144,276.31076381368257L259.90181207977,275.72999634245207L262.72977252058627,271.51063390802665L262.9217288230575,270.84202048171574L262.9628361000723,269.9576257641638L262.75216130538684,268.75124114993014L262.9217288230575,267.7378043297067L263.6550532825968,266.42465307380553L264.4375596628488,265.49115808938586L266.5035673619277,263.6958619958896L268.38679449000847,260.75731544582595L268.9219231496718,259.54525048822325L268.9611952803898,257.92812272433366L268.33908068633536,256.8221817001104L264.88056397850596,253.41777891889433L264.1222815293477,252.33448427182157L263.91454296873417,251.54321464916939L263.9094045591046,250.53651301274294L264.04337023865446,249.7456843221662L264.5707912838807,248.57638663062244L266.34060637091534,247.55503580410732L271.581050131339,247.22120959135282L272.7335220046916,247.67488245063214L273.7296394137011,248.42597595700136L275.4972523251854,248.329421637638L276.11606365590706,247.96697645472887L277.5243549228071,245.69517208150864L280.1658645000425,242.35656080639455L280.9971857717428,239.560207026665L281.0669213309593,238.3929655264219L280.8213787566674,237.34605216070122L280.0300636741995,235.67829775351856L278.1982206423818,233.73959435255892L276.91582041133006,231.48960037036886L275.7086611783852,229.84241750358342L272.59551900329825,226.68957204015533L272.0743374554804,225.72530466257376L271.84788040265266,224.98144922446954L272.1301259028478,222.81581899536832L271.7983314526864,219.4709443932661L271.48121817288484,218.09268478191007L270.6286092041628,216.1451487518425L264.6654848327089,211.16066689357103L263.86022263839914,209.93312797994076L260.99592630092957,205.26202741121597L260.76506489700114,203.62127257525935L258.7353930945719,199.52023328229188L256.5034881704123,197.13322597682418L256.0850748151206,195.51100931850306L255.72208287793546,192.94241284500458L255.5668295013711,192.4641500328362L255.44424172885556,191.78465462905297L255.76722747679742,190.5782474970365L255.52315301954513,189.70719528440168L254.72743358596927,188.80792571665006L252.35238725079034,189.37957242634366L251.5118902476097,189.23325906007085L250.62514755779557,188.4088363875344L249.98431447153052,187.03118658571475L249.98614961783096,185.5445806490461L250.87986586356055,183.93344591137793L251.23955453741655,182.7729314802673L251.45096339061274,181.63133713487696L251.4182977865603,179.69325638598457L251.8014763329884,178.626921657622L253.0416681992465,177.23572211831197L254.42646959356352,176.17805886382848L259.1347209283922,173.2383011475904L259.67829126101424,172.30063436461205L262.7730819731514,171.0292933701021L264.6544739549354,169.97969382607334L266.57917538928814,167.82591297951512L266.77186575027736,167.21934559229703L269.9598818942068,166.10589730624633L272.1994944328035,165.96385568590995L273.83901413288913,165.2390444628727L284.79997592454674,158.8488078430164L287.06528051127316,156.4159503305309L288.45815654929174,155.6077141745409L290.26540862075126,154.93132989144215L290.39276777363557,154.49142913786272L290.04555809459634,152.6762880123788L290.2929358151814,151.68253982824535L292.6844984670133,148.52589515660657L293.39910443434565,147.29790258743014L293.9026685777353,145.97446032333391L294.12141801611506,144.511747175271L295.11276404475575,142.04567080015477L295.64018508997833,141.44202268999652L297.3861432751837,141.42985224812583L299.86689403696073,138.31552749185357L301.6176236025349,137.04332360865737L303.64178996607734,136.1849347440766L306.11630123045325,135.76960844110727L310.3749417229774,132.78913108644338L311.32848373793604,131.56978701481057L311.9267414301503,128.82901500350272L311.66798580253453,127.9027095456222L310.9449381622435,127.53890085547755L309.9899280302525,127.78825879729993L308.7926785872987,128.51343129810266L306.5846305649793,130.56515672697424L305.3117730946651,131.20553304699934L304.0341442439785,131.3628250417969L303.0248137816525,131.18946292350302L302.73045631590867,130.91967843303064L302.7660581540331,129.38468800515693L306.2550382903646,121.61072007792245L307.1135197272415,120.5497564401303L309.6665752530462,119.13508350608026L310.9897157318446,118.87104326711051L312.09594191856377,118.96847534338667L312.83146855365703,118.69176747116944L318.8441418750772,114.1496162941803L319.05628478679864,113.72133556885456L318.91681366836565,112.8184678737598L319.88834011702056,111.4736203658722L324.9995895782595,109.36121849208212L327.92554683124035,107.0420449440644L334.5001419482396,98.50170817997423L335.7759356526258,95.71032366593863L335.9990894421135,94.50321564354454L336.53898948214555,93.37650783640856L340.31094917718656,89.75917079557621L342.9847573292245,86.23066577109785L344.32331303690444,82.97879054904843L344.402958386112,81.52294726062246L345.9595294736573,77.59452164518007L348.43587588432274,72.61330094718141L350.9643404497765,68.36857630881423L351.2454848621928,67.57665312494282L351.3588969032353,66.87888566722904L350.80321460506457,65.99567560936703L348.60030499237473,63.776319467669964L348.3925664317576,63.334674556168466L348.8414432155587,61.205909140520816L350.35837514312516,58.53279460618069L350.49454299822537,56.59700164017704L352.15608445384714,52.984769231381506L352.57743404321445,52.43850550533534L353.06705107475864,52.235423843492754L355.1525113245698,51.90248428281848L355.90675645187366,50.864588801596256L356.2917701445913,50.07027814519461L356.60447907328125,48.551903397041315L356.06311091621683,46.832781570828956L356.1317453876545,46.099892881469714L358.03369100794225,42.240841314578574L359.05072908471993,39.161273113852076L360.62858786928336,37.29316931714493L362.1003751979915,34.319117536069825L365.1001053320397,31.076601325210504L367.3687131821025,29.9466744582096L368.7157105627375,28.966688146800152L370.6150869782141,26.524896228267608L375.86360538233566,22.873584508408385L376.07171097220635,22.379577238138154L375.9300376782194,21.182884942194505L374.6656218808639,19.019049492864724L374.9526387614278,18.094927724650915L376.0258323148264,17.089163462358556L377.1346277063567,16.690367672588764L379.89138447092773,16.227054528324516L382.34937941864337,16.179647634497087L383.56020894418543,15.811630893491383L385.34910955269515,14.11126990957564L386.5291086204743,12.640059378354636L387.6940594886328,8.359476556677691L389.29210488244644,6.096992478400352L390.2948288181178,5.525479596872174L396.76078327443247,5.331876670541533L398.6873198550784,5.593435900427721L402.1557463529134,4.908488390152343L406.71021242820643,2.292743084988615L408.2095269513411,1.6527083699438663L409.6167171304551,1.4033407111455745L411.7018103510054,0L431.2901619054064,11.999255068945786L443.84109444717615,19.38165367129841L483.3866619613036,44.01636579669139L498.8088643964584,53.35089249734665L527.6889286724436,72.49621266607937L548.9410238580313,85.47088413832535L555.9149468088508,90.24969770874668L580.6971294077775,104.73342540797603L599.8131143058017,115.1070149176303L631.2322869957607,133.51808576151234L632.8105128095885,134.443254824022L651.6875616599827,145.5470921441156L651.6893968062832,145.54806565442777L699.0981991658555,173.66481373531133L700.8694823699298,175.03671596654385L701.6196901753829,175.46709503157763L702.4748683489233,175.61006713726601L705.6683899317395,175.65869695985748L704.7508167841625,183.1954277711302L700.7865337573894,197.87432522540985L697.7401909074397,210.79828791061664L696.9694294634792,213.42131419856742L696.8868478801996,214.3543798368337L696.7033332506835,214.40295096513364L696.2261952139488,216.34525016769112L692.8124560757133,227.95094155928018L691.1975273359858,231.59203070396688L689.4816655500217,235.1739742988284L685.7379671079289,243.08497054212057L683.6455333021986,248.13097491507506L680.2688641191235,258.36709315885673L678.4704207498798,261.37424333612216L663.3847841452516,289.05543872136695L661.6964495537177,292.44735261292954L659.0050239972552,306.58487933181095L657.7475817558225,315.2922802353205L652.6110072757001,314.6604057516488L647.969555266016,321.8930546178617L641.6724342688503,339.04468491899206L634.6581380995412,342.24750626252353L632.2232659951333,344.2014582427655L614.1283564957266,347.97453910523836L600.2928215473548,345.7586331315706L598.4782288907154,345.9559956945868L597.3481458021633,347.0414682249502L592.5338230114721,353.22225819219966L590.0508700741375,379.68920413423984L587.9221003717685,387.27495407893366L586.6738338618125,388.91749356932996L581.7556417908163,387.9513039720241L575.4970588658434,392.5901999323578L574.469376940564,396.1161467099573L576.3793972045532,406.42033492609335L568.28530095518,416.92396563021794L566.6703722154452,422.13637873171683L568.542221436499,430.145933070864L570.6346552422219,433.5713081306294L579.8837925697662,436.89984684761475L589.7572466669153,441.9156466167169L591.0785519994242,445.1468788152051L590.9937682405834,446.0718200239953L590.1730908173995,446.68377131366105L590.7052832429872,447.689680329333L592.5686907910786,445.999002356064L595.585671300305,445.00799068238666L596.5395803445208,444.0458846752317L597.8322573948208,441.9156466167169L602.603637762204,437.96056583018435L602.5647326607468,438.4988710518519L602.4983003648667,441.07788503422125L601.8493926349001,441.75504115152944L602.3984684064017,442.3014823199792L604.3690484981344,440.3563412960284L605.458391338936,441.2741845954806L605.7578872143022,442.0502073397711L606.5521385308457,441.4791644410052L606.8145644510478,441.4251463486744L608.8431351657055,442.3014823199792L610.3758493514142,441.79989501017553L610.7153514160127,441.9460313449381L610.9847508921412,441.599740215217L614.3122381544999,440.4687218246527L615.4133259315895,439.0217324386231L615.9532259716216,438.5099650618595L616.9045658110263,438.1588136857281L617.6738591379544,438.4115658840983L618.6251989773555,439.0998715154765L619.9718293287369,440.1532836446895L620.9899684932825,440.86759720746886L621.8579926908897,441.5052088462071L623.8634405622252,442.56095424769956L634.4258085785696,446.25603352653343L638.7934567610246,448.52244907954264L645.1067270455897,453.8257246272133L649.1807518208188,455.6577302849346L664.4128330997955,459.4178387934844L667.3042896024308,459.5127999935703L668.4123509354395,455.3858286163868L669.8085302367872,444.0854304472359L664.5251440530556,433.6103842640787L660.2286995468603,429.95246094265167L660.1795176261512,428.9242891760714L661.6057933267402,427.89511976548056L664.1496731210718,428.46109461258675L668.3400461714082,431.6410814524479L674.7267223077833,445.3875203867574L675.203860344518,460.6711114447644L677.2595912243451,478.4040687782872L677.2595912243451,489.81918136827335L675.0350268853654,513.2336411939505L673.4791898563417,522.8387182574334L669.2176131297529,542.9144754321496L655.6782707934108,598.0900488195439L654.2472237124566,607.5439450263148L655.2609585258979,608.7790506127731L654.4432173367786,609.2699129344946L652.2869204399831,617.9444349858259L643.216159332329,666.9708773168131L638.4036716879345,699.6045225649414L633.3761048977467,752.6812229249099L631.1276836569341,768.0274582873244L631.1882434846739,770.3275104281347L630.4490465569834,771.9947924492426L629.5230317364585,773.6013573686578L625.0408704251931,780.9786123914673L614.735422890164,805.4481400441236L596.6625351462935,836.1105253857386L578.4828418880497,869.5483838801665L575.3495131037125,872.8409476558518L564.952675283188,888.9872281756016L559.570558228781,894.5449959284124L555.7178520967464,895.5962189863203L554.8267050558243,892.3363672819451L552.5959012194435,892.4833600740149L551.622539624499,898.591307914925L553.5843110140049,903.3133609407814L554.8931373517116,903.7889055033611L555.8452112496343,905.6957705182976L555.0527950793839,909.2571766033088L543.8727168200894,928.0060082088185L532.0595130889706,942.251138280053L517.4877174469802,953.8867981961248L517.4510145210807,955.5961138701387L516.9206572417825,959.7954332645513L515.2855418928048,961.8153799261381L497.9610268080978,969.3149279008248L475.24081458640285,984.1191841932232L464.46703771685134,993.7369880922033L463.6272747721923,996.8782857983861L460.86794880281013,1000.784575792386L453.50864513001216,1004.5102495731026L447.3010792720452,1010.183774247278L441.2230747425201,1016.9103485234737L433.21266116420156,1028.1996108887597L429.43629711804533,1032.3836012943175L427.65693927027314,1038.7419558957154L420.3211254700509,1047.6332783277776L404.5715329358354,1076.029259061008L404.21221129125115,1077.406367892725L404.6471409632031,1078.476414553641L408.216867536521,1081.6801994562484L407.6784356135249,1084.0077526306068L395.7720064506102,1097.3474909300003L380.92163560101835,1121.7594423879746L378.13992084683923,1132.6047320559956L375.8030455545995,1136.4403632956364L370.22640299289924,1139.2938969218758L366.028689357383,1142.3846747277585L354.506172799418,1154.1219280213463L349.47420165811855,1160.7893305542893L349.2026000064361,1160.3037612322423L347.2577119628404,1159.3108939572649L342.9223623551843,1160.1527567024023L333.8416914575391,1164.7604474371747L328.9367124398741,1166.1088968197164L324.1077084788194,1166.3999999999996L313.1364698679099,1165.1379055043744L311.737721361751,1164.0909207170916L310.0049762298695,1160.8082057986703L316.10940686604954,1132.0620788900233L318.272310289507,1125.2722657905524L322.364686527686,1116.036849577542L335.084452528612,1091.3379395645316L337.24258457170436,1085.9591584786158L339.16471680124596,1079.1613777616894L341.59922187638585,1064.7571565383587L341.1393342148185,1057.5640701258308L334.5276691426661,1049.9329105024608L313.53322849691904,1042.6916328709704L308.43739426455795,1041.7288831188162L300.45964629029186,1042.2109718180855L290.117862858624,1041.0895602211076L289.1246816836865,1040.644868384883L289.51409972751935,1038.3138092686277L291.06956972728585,1036.8398818480346L291.12425708687806,1035.799283868182L290.04555809459634,1033.4029902349284L286.6336541026503,1030.7668204763777L284.43478181181126,1030.7213429384938L282.18342433692305,1032.5257112919116L280.52114882277965,1031.6223550705236L276.78479096586307,1031.643672096705L268.01682899690786,1034.203984442116L262.64939311286435,1032.547027739185L260.3492207465206,1032.6673469854431L257.61044841564217,1034.4905566325324L253.0879138858836,1042.9151497347339L249.60921056880034,1047.8117813032713L248.6593388464389,1047.529585178343L238.8071724463116,1037.1960553823064L239.24063400122031,1030.20261037222L237.1683868047403,1021.6568072138562L234.57642617747842,1017.8169479539956L232.5489565505959,1015.9814494413458L229.30698710558863,1016.4169926003251L227.51111294116345,1011.4214106520267L224.17077965473436,1008.3976286518337L221.72893399441455,1008.3331587565463L211.03773870813893,1002.9561188152838L210.15062898907127,1001.2525600552199L210.58188836842965,999.8850981625692L210.0401531821044,997.4544426676803L207.30615223158748,990.7139672372505L200.03053122984784,988.7560183549194L195.99651264386193,991.1209101423046L195.0007622641133,994.3663147408624L193.6923029556674,995.6254064846144L187.41169827516205,989.8606989620275L184.0383323554197,985.6481065595326L179.79804332585263,975.2673176142944L179.53781958120453,972.0418747306485L177.23287583449564,969.1635297488119L174.2136931497189,967.567874600989L169.2261325487707,967.9826953697284L165.75476981687098,971.0367366356331L156.57389993150719,963.0291876256888L154.99530708842576,960.42113142569L154.6833322182465,956.791632839735L153.17007058326635,952.9494860158029L144.80363862368904,949.6107489003898L141.24198669406906,947.1868553055356L137.3551468409496,942.1209910648904L128.9799061791564,924.713230440273L124.91799336947588,925.0953216094731L122.24124898337686,923.8131126667249L114.12990235882171,918.0606204604956L113.13488603760197,915.1115042313359L102.84044938034276,914.432656900035L100.46833927923217,909.7316848084647L99.92733815142128,905.3786013413537L100.54211216029944,897.3099738726833L105.90257448842385,896.5746350296304L106.25015119672389,895.6242828542127L105.43277703686181,895.0929679555684L105.14943044889151,893.121748370404L105.20888918885612,890.5319656064494L106.42889444587126,883.0045547615191L106.38007955441935,880.7194909768696L106.05379054314108,878.8930393908449L104.62274346218692,878.1568147439066L103.72755909941407,876.311659941015L104.34123202051342,875.0846725056563L106.6678304934976,872.6058094141899L109.22859363374664,869.3151263438504L110.79580856979737,865.8822417102128L111.83229919730002,863.4998165882771L111.53867579007783,858.5554025324836L110.62257075954403,857.2448943661766L109.00764201980928,856.0562489339391L108.2853284380435,856.132445438132L106.78748203194118,855.6752637740774L104.78497039467766,853.8007527316277L103.5576245524826,852.6577059333831L102.5534324997825,851.4384123706623L101.69935541401355,850.8158884783643L101.54924044707514,850.7525399410788L100.075250942813,849.9828216808492L99.54672880980797,849.6093875408424L96.57489289944715,847.1247997303799L95.70576761406846,845.303157877619L95.38865433426326,844.8915595936523L95.10677586332895,843.7024690336875L95.33580212096422,842.2922740246577L94.76030024280408,839.8376286279363L94.33161006826413,836.5441527610947L94.51952904888458,834.2339490929371L94.39327098377908,833.8736799711423L95.56776461267145,831.4431901737207L97.62349549249484,830.0134065852417L98.88901237763275,828.7665846785312L100.77994712014697,826.1526810944597L101.80762904543008,826.105014990806L103.31281603670868,825.5806833007264L106.395861812558,821.8143066027915Z" class="state" fill="coral" stroke="#111" stroke-width="0.5"></path></g></svg>